<svg xmlns="http://www.w3.org/2000/svg" viewBox="0 0 32 32">
	<path d="M31.391,13.88l-5-8C25.661,4.711,24.379,4,23,4H4C1.791,4,0,5.791,0,8v16c0,2.209,1.791,4,4,4h19    c1.379,0,2.66-0.711,3.391-1.881l5-8C32.203,16.824,32.203,15.177,31.391,13.88z M29.695,17.059l-5,8.002    C24.328,25.649,23.693,26,23,26H4c-1.103,0-2-0.898-2-2V8c0-1.103,0.897-2,2-2h19c0.693,0,1.328,0.352,1.695,0.939l5,8C30.098,15.584,30.098,16.416,29.695,17.059z"/>
	<path d="M23,13c-1.658,0-3,1.343-3,3s1.342,3,3,3c1.656,0,3-1.344,3-3C26,14.343,24.656,13,23,13z     M23,18.001c-1.105,0-2-0.896-2-2s0.895-2,2-2c1.104,0,2,0.896,2,2C25,17.104,24.104,18.001,23,18.001z"/>
</svg>